<?xml version="1.0" encoding="UTF-8"?>
<svg viewBox="0 0 440 660" xmlns="http://www.w3.org/2000/svg" xmlns:xlink="http://www.w3.org/1999/xlink">
<defs>
<linearGradient id="a" x1=".62713" x2=".61221" y1=".04573" y2=".92683">
<stop stop-color="#c2c2c2" offset="0"/>
<stop stop-color="#9f9f9f" offset="1"/>
</linearGradient>
</defs>
<metadata>image/svg+xml</metadata>
<g>
<title>background</title>
<rect x="-1" y="-1" width="442" height="662" fill="#eee"/>
</g>
<g>
<title>Layer 1</title>
<g stroke-linecap="round" stroke-linejoin="round">
<path d="m-0.20335 7.0136v-7.0136h440v7.0136 645.97 7.0136h-440v-7.0136-645.97z" fill="#eee" stroke-width="1.5933"/>
<g stroke="null">
<rect transform="rotate(-16.343 -295.42 258.59)" x="103.34" y="437.34" width="82.49" height="90.47" ry="8.397" fill="#9f9f9f" stroke-width="2.2995"/>
<g transform="rotate(16.321 242.72 73.697)" stroke="#fff">
<rect x="251.77" y="260.24" width="107.83" height="115.97" ry="4.5962" fill="url(#a)" stroke-width="5.398"/>
<g transform="matrix(.17265 0 0 .17265 512.49 -6.3296)" fill-rule="evenodd" stroke-width="13.071">
<rect x="-1441" y="1605.1" width="491.11" height="450" fill="#ccc" shape-rendering="auto"/>
<rect x="-1441" y="1605.1" width="491.11" height="210" fill="#fff" shape-rendering="auto"/>
<path d="m-1411 1815.1 38.461-53.538 60.531-45.161 15.883 18.574 13.613-38.684 8.2013-2.9819 13.311-28.209 180 180" fill="#ccc"/>
<path d="m-1261 1665.1c4.0931 16.475 7.7122 33.067 10.852 49.75 2.3826 12.661 4.4886 25.374 6.3164 38.127l-22.064-7.1602-46.111-29.416 5.3242 46.426-1.6152 24.787 10.053 30.377 73.186-11.756 84.061-21.135-47.801-77.434-9.6992 14.934-27.125-22.125-35.375-35.375z" fill="#b3b3b3"/>
<path d="m-1291 1845.1 81.899-74.43 18.506-9.6801 23.651-44.189 25.944-21.701 180 180" fill="#ccc"/>
<path d="m-1141 1695.1 35.939 80.913v30.11 30.11l22.459 19.467c6.5245-6.4503 14.149-11.785 22.444-15.705 14.824-7.0045 31.338-9.3596 47.171-13.622 6.4278-1.7304 12.907-3.8542 18.213-7.8728 1.3517-1.0236 2.6159-2.1628 3.7742-3.4011h-30l-40.521-40.55-29.856-48.92-10.253 8.8389-39.369-39.369z" fill="#b3b3b3"/>
<path d="m-1291 2055.1c-0.41699-9.6009-8.8176-17.609 17.125-30.668 31.832-16.024 125.9-35.888 152.15-59.984 19.427-17.827-70.415-37.669-55.019-59.073 6.981-9.7053 59.037-19.969 82.146-30.274 21.906-9.768 15.141-19.803 31.405-29.975 15.709-9.8256 68.35-19.774 72.189-30.025-10.414 10.522-68.834 20.403-90 30-22.338 10.128-21.469 19.93-49.431 29.484-30.124 10.292-89.142 20.553-102.71 30.516-28.413 20.869 46.863 42.6 16.202 60-41.52 23.563-149.34 43.294-194.06 60-30.904 11.544-28.408 17.748-30 30" fill="#fff"/>
</g>
</g>
</g>
</g>
</g>
</svg>
